# xmcd
#
# Track frame offsets:
#	150
#	14940
#	36267
#	46743
#	62140
#	75367
#	94650
#	112488
#	123659
#	140362
#	156050
#	170671
#	180627
#
# Disc length: 2581 seconds
#
# Revision: 1
# Processed by: cddbd v1.5.1PL2 Copyright (c) Steve Scherf et al.
# Submitted via: audiograbber 1.81.03
#
DISCID=b40a130d
DTITLE=The Love glove - Delta Roll
DYEAR=2006
DGENRE=Blues
TTITLE0=Sometimes woman
TTITLE1=Elevate Me
TTITLE2=Deja Vu
TTITLE3=Get 'Em While They're Hot
TTITLE4=Who Do You Love
TTITLE5=Leaving Blues
TTITLE6=Hate To See You Go
TTITLE7=Mother  Don't Allow
TTITLE8=Raining In My Hart
TTITLE9=Strange Land
TTITLE10=Money Bound
TTITLE11=Waiting For The Man
TTITLE12=Bottle It Up And Go 
EXTD=
EXTT0=
EXTT1=
EXTT2=
EXTT3=
EXTT4=
EXTT5=
EXTT6=
EXTT7=
EXTT8=
EXTT9=
EXTT10=
EXTT11=
EXTT12=
PLAYORDER=
